<?xml version="1.0" encoding="UTF-8"?>
<svg version="1.1" xmlns="http://www.w3.org/2000/svg" width="224" height="224">
<path d="M0 0 C0.67627441 0.20898926 1.35254883 0.41797852 2.04931641 0.63330078 C16.73834836 5.27249114 29.33273 12.99948286 41 23 C41.99 23.7734375 41.99 23.7734375 43 24.5625 C59.51698016 37.88264529 69.8296535 58.14126171 76 78 C76.36222656 79.15113281 76.72445312 80.30226563 77.09765625 81.48828125 C81.83140302 100.22511149 80.9257937 122.63230994 75 141 C74.68651611 142.01441162 74.68651611 142.01441162 74.36669922 143.04931641 C69.72750886 157.73834836 62.00051714 170.33273 52 182 C51.2265625 182.99 51.2265625 182.99 50.4375 184 C37.11735471 200.51698016 16.85873829 210.8296535 -3 217 C-4.15113281 217.36222656 -5.30226562 217.72445312 -6.48828125 218.09765625 C-25.22511149 222.83140302 -47.63230994 221.9257937 -66 216 C-67.01441162 215.68651611 -67.01441162 215.68651611 -68.04931641 215.36669922 C-82.73834836 210.72750886 -95.33273 203.00051714 -107 193 C-107.66 192.484375 -108.32 191.96875 -109 191.4375 C-125.51698016 178.11735471 -135.8296535 157.85873829 -142 138 C-142.36222656 136.84886719 -142.72445312 135.69773438 -143.09765625 134.51171875 C-147.83140302 115.77488851 -146.9257937 93.36769006 -141 75 C-140.79101074 74.32372559 -140.58202148 73.64745117 -140.36669922 72.95068359 C-135.72750886 58.26165164 -128.00051714 45.66727 -118 34 C-117.484375 33.34 -116.96875 32.68 -116.4375 32 C-103.11735471 15.48301984 -82.85873829 5.1703465 -63 -1 C-61.84886719 -1.36222656 -60.69773437 -1.72445313 -59.51171875 -2.09765625 C-40.77488851 -6.83140302 -18.36769006 -5.9257937 0 0 Z " fill="#6B6B6B" transform="translate(145,4)"/>
<path d="M0 0 C0.95669586 -0.00525696 1.91339172 -0.01051392 2.89907837 -0.01593018 C6.057316 -0.02911922 9.21504836 -0.02039508 12.37329102 -0.01025391 C14.57137651 -0.01227512 16.76946135 -0.01518695 18.96754456 -0.01895142 C23.57331733 -0.02337343 28.1789155 -0.01694812 32.78466797 -0.00292969 C38.68391307 0.01415189 44.58274839 0.00432652 50.48197842 -0.01364708 C55.02105283 -0.0244967 59.56003039 -0.02103295 64.09910774 -0.0132637 C66.27398795 -0.01126444 68.44887698 -0.01371133 70.62374687 -0.02070236 C73.66606753 -0.02833492 76.70772838 -0.01668645 79.75 0 C80.64629623 -0.00607269 81.54259247 -0.01214539 82.46604919 -0.0184021 C88.32808899 0.04105638 92.52457655 0.99362015 97.18969727 4.82568359 C100.00219079 8.34130051 100.68911936 11.17829232 100.6802063 15.65264893 C100.68295563 16.71833099 100.68570496 17.78401306 100.6885376 18.88198853 C100.67775177 20.62770645 100.67775177 20.62770645 100.66674805 22.40869141 C100.6670401 23.6382254 100.66733215 24.8677594 100.66763306 26.134552 C100.6664788 29.50207264 100.65645122 32.8693478 100.64248514 36.23682499 C100.62997912 39.75754637 100.62880738 43.27827106 100.62643433 46.79901123 C100.62021918 53.46419458 100.6038079 60.12931229 100.58373535 66.79446673 C100.56137743 74.38328132 100.55038319 81.97209904 100.54034448 89.56093836 C100.51944169 105.17005811 100.48426505 120.77911239 100.43969727 136.38818359 C99.00794789 136.08076604 97.57683603 135.77037851 96.14599609 135.45875549 C95.34897781 135.2862304 94.55195953 135.11370531 93.73078918 134.93595219 C90.7460253 134.22233616 87.97025228 133.19079385 85.12719727 132.04052734 C84.0327832 131.6003125 82.93836914 131.16009766 81.81079102 130.70654297 C80.69833008 130.25085938 79.58586914 129.79517578 78.43969727 129.32568359 C77.29629883 128.86613281 76.15290039 128.40658203 74.97485352 127.93310547 C66.58966449 124.53815081 66.58966449 124.53815081 65.43969727 123.38818359 C63.09353268 123.28452611 60.77585445 123.24456324 58.42895508 123.24633789 C57.69556915 123.24286346 56.96218323 123.23938904 56.20657349 123.23580933 C54.60835789 123.22843904 53.01013196 123.22310047 51.41190338 123.21951866 C48.8815932 123.21237062 46.35147894 123.19671577 43.82122803 123.17817688 C36.62506844 123.125636 29.42901317 123.07774228 22.23266602 123.06225586 C17.83520961 123.05217055 13.43824109 123.02282845 9.04097748 122.98093605 C7.36491335 122.96862461 5.68878029 122.96350507 4.01267242 122.96573448 C1.6639257 122.96808919 -0.68342453 122.94590913 -3.03198242 122.91821289 C-4.06864548 122.92811501 -4.06864548 122.92811501 -5.12625122 122.93821716 C-8.35568096 122.87578398 -10.45528163 122.44736738 -13.28082275 120.85505676 C-18.99763229 114.66827549 -20.15450124 108.75210127 -20.09375 100.51904297 C-20.10236557 99.56512161 -20.11098114 98.61120026 -20.11985779 97.62837219 C-20.14243776 94.49594476 -20.1357939 91.36441768 -20.12670898 88.23193359 C-20.13194773 86.04292537 -20.13822513 83.85391942 -20.14549255 81.66491699 C-20.15588181 77.08542225 -20.15135575 72.50623854 -20.13671875 67.92675781 C-20.11952521 62.06905153 -20.14304181 56.21232564 -20.17820835 50.3547287 C-20.20020576 45.83699083 -20.19873525 41.31948676 -20.19044304 36.80171204 C-20.18962497 34.64242985 -20.19646059 32.48313025 -20.21121407 30.32389832 C-20.22870475 27.30109981 -20.21407955 24.28005342 -20.19140625 21.25732422 C-20.20309845 20.37293167 -20.21479065 19.48853912 -20.22683716 18.5773468 C-20.13221405 12.35259217 -18.61251375 8.16034657 -14.56030273 3.38818359 C-10.23593353 -0.46910572 -5.50998942 -0.03724781 0 0 Z " fill="#FCFCFC" transform="translate(64.560302734375,45.61181640625)"/>
<path d="M0 0 C4.42921605 0.26843734 7.35431093 2.38498291 10.95703125 4.73046875 C24.07078025 12.87954796 42.42744028 13.36719093 57.2421875 10.27734375 C60.29927648 9.37194689 63.1063854 8.33320613 66 7 C66.96292969 6.56816406 67.92585938 6.13632813 68.91796875 5.69140625 C73.82594345 3.37959274 73.82594345 3.37959274 78 0 C80.625 -0.125 80.625 -0.125 83 0 C83.495 3.465 83.495 3.465 84 7 C66.24867905 19.47737777 48.63188854 23.37259314 27 21 C15.9658935 18.7151691 6.01337708 14.01337708 -2 6 C-1.44444444 1.44444444 -1.44444444 1.44444444 0 0 Z " fill="#707070" transform="translate(64,130)"/>
<path d="M0 0 C0.66 0.33 1.32 0.66 2 1 C-0.31 3.31 -2.62 5.62 -5 8 C-5.33 7.34 -5.66 6.68 -6 6 C-2.25 1.125 -2.25 1.125 0 0 Z " fill="#DFDFDF" transform="translate(53,47)"/>
</svg>
